<svg xmlns="http://www.w3.org/2000/svg" viewBox="0 0 549.67 298.21"><defs><style>.cls-1{fill:#fff100;opacity:0.4;}.cls-2,.cls-3{fill:none;stroke:#ec1c24;stroke-miterlimit:10;}.cls-3{stroke-dasharray:1 2;}.cls-4{fill:#ec1c24;}.cls-5{font-size:12px;fill:#fff;}.cls-12,.cls-5{font-family:Helvetica-Light, Helvetica;}.cls-6{font-size:7px;}.cls-12,.cls-6,.cls-7{fill:#231f20;}.cls-6,.cls-7{font-family:HelveticaNeue-Medium, Helvetica Neue;}.cls-7{font-size:16px;}.cls-8{letter-spacing:-0.02em;}.cls-9{letter-spacing:-0.02em;}.cls-10{letter-spacing:-0.02em;}.cls-11{letter-spacing:-0.02em;}.cls-12{font-size:6px;}</style></defs><title>Asset 1</title><g id="Layer_2" data-name="Layer 2"><g id="content"><rect class="cls-1" x="161.62" y="103.21" width="65.89" height="10.29"/><rect class="cls-1" x="434.33" y="134.21" width="113.33" height="12.67"/><line class="cls-2" x1="30.5" y1="60.55" x2="31" y2="60.55"/><line class="cls-3" x1="33" y1="60.55" x2="457.17" y2="60.55"/><line class="cls-2" x1="458.17" y1="60.55" x2="458.67" y2="60.55"/><circle class="cls-4" cx="25.33" cy="60.55" r="15.5"/><text class="cls-5" transform="translate(22.17 64.21)">1</text><text class="cls-6" transform="translate(10 90.55)">Client Login</text><text class="cls-7" transform="translate(0 13.71)">Campaign Content Collection - A<tspan class="cls-8" x="243.61" y="0">f</tspan><tspan x="248.36" y="0">fo</tspan><tspan class="cls-9" x="262.89" y="0">r</tspan><tspan x="268.24" y="0" xml:space="preserve">dances   </tspan></text><circle class="cls-4" cx="173.67" cy="60.55" r="15.5"/><text class="cls-5" transform="translate(170.5 64.21)">2</text><text class="cls-6" transform="translate(158.33 90.55)">Client Dashboa<tspan class="cls-10" x="49.53" y="0">r</tspan><tspan x="51.87" y="0">d</tspan></text><circle class="cls-4" cx="314.33" cy="60.55" r="15.5"/><text class="cls-5" transform="translate(311.17 64.21)">3</text><text class="cls-6" transform="translate(299 90.55)">Campaign C<tspan class="cls-11" x="40.06" y="0">r</tspan><tspan x="42.4" y="0">eation</tspan></text><circle class="cls-4" cx="452.33" cy="60.55" r="15.5"/><text class="cls-5" transform="translate(449.17 64.21)">4</text><text class="cls-6" transform="translate(437 90.55)">Content Feedback &amp; App<tspan class="cls-10" x="81.42" y="0">r</tspan><tspan x="83.76" y="0">oval</tspan></text><text class="cls-12" transform="translate(159 102.2)">• Create a new campaign<tspan x="0" y="8" xml:space="preserve">   - Create SF oppurtunity</tspan><tspan x="0" y="24">• Review past campaigns (+ recap </tspan><tspan x="0" y="32">decks?)</tspan><tspan x="0" y="48">• Relaunch / add budget to past </tspan><tspan x="0" y="56">campaigns</tspan><tspan x="0" y="72">• Access FAQs, SOW, relevant docs</tspan><tspan x="0" y="88">• Contact sales rep / AM </tspan><tspan x="0" y="104">• Update account info </tspan></text><text class="cls-12" transform="translate(10 102.2)">• Email + Password<tspan x="0" y="16">• AM / Ibotta can log in as an Admin user </tspan><tspan x="0" y="24">to help client add content</tspan></text><text class="cls-12" transform="translate(299 102.2)">• Add Billing &amp; Analytics contact info<tspan x="0" y="16">• Add Details</tspan><tspan x="0" y="24" xml:space="preserve">    - Name</tspan><tspan x="0" y="32" xml:space="preserve">    - Value</tspan><tspan x="0" y="40" xml:space="preserve">    - Dates</tspan><tspan x="0" y="48" xml:space="preserve">    - Target States</tspan><tspan x="0" y="56" xml:space="preserve">    - Budget</tspan><tspan x="0" y="72">• Add Offers</tspan><tspan x="0" y="88">• Upoad Assets</tspan><tspan x="0" y="96" xml:space="preserve">    - Image(s)</tspan><tspan x="0" y="104" xml:space="preserve">    - UPCs</tspan><tspan x="0" y="112" xml:space="preserve">    - Retailers</tspan><tspan x="0" y="128">• Choose Engagement(s) + add </tspan><tspan x="0" y="136">engagement content</tspan><tspan x="0" y="152">• Request custom content from AM</tspan><tspan x="0" y="168">• Submit campaign</tspan><tspan x="0" y="176"> </tspan></text><text class="cls-12" transform="translate(437 102.2)">• Third-party tool (ProofHQ, InVision, etc)<tspan x="0" y="16">• AM reviews client content before </tspan><tspan x="0" y="24">launching</tspan><tspan x="0" y="40">• Approved content is imported to Admin </tspan></text></g></g></svg>