<?xml version="1.0" encoding="UTF-8" standalone="no"?>
<svg width="119px" height="168px" viewBox="0 0 119 168" version="1.1" xmlns="http://www.w3.org/2000/svg" xmlns:xlink="http://www.w3.org/1999/xlink">
    <!-- Generator: Sketch 41 (35326) - http://www.bohemiancoding.com/sketch -->
    <title>rain</title>
    <desc>Created with Sketch.</desc>
    <defs>
        <polygon id="path-1" points="0.000451528611 36.9663819 27.0781233 36.9663819 27.0781233 0.321158885 0.000451528611 0.321158885"></polygon>
        <polygon id="path-3" points="0.000451528611 36.9663819 27.0781233 36.9663819 27.0781233 0.321158885 0.000451528611 0.321158885"></polygon>
        <polygon id="path-5" points="0.000451528611 36.9663819 27.0781233 36.9663819 27.0781233 0.321158885 0.000451528611 0.321158885"></polygon>
        <polygon id="path-7" points="0.000290268393 23.9781937 17.407365 23.9781937 17.407365 0.208319277 0.000290268393 0.208319277"></polygon>
        <polygon id="path-9" points="0.00035477248 29.9727421 21.2756683 29.9727421 21.2756683 0.260399096 0.00035477248 0.260399096"></polygon>
        <polygon id="path-11" points="0.000548284742 44.9591131 32.8805783 44.9591131 32.8805783 0.390598644 0.000548284742 0.390598644"></polygon>
        <polygon id="path-13" points="0.000725670982 59.9454841 43.5184125 59.9454841 43.5184125 0.520798192 0.000725670982 0.520798192"></polygon>
        <filter x="-50%" y="-50%" width="200%" height="200%" filterUnits="objectBoundingBox" id="filter-15">
            <feOffset dx="0" dy="2" in="SourceAlpha" result="shadowOffsetOuter1"></feOffset>
            <feGaussianBlur stdDeviation="2" in="shadowOffsetOuter1" result="shadowBlurOuter1"></feGaussianBlur>
            <feColorMatrix values="0 0 0 0 0   0 0 0 0 0   0 0 0 0 0  0 0 0 0.2 0" type="matrix" in="shadowBlurOuter1" result="shadowMatrixOuter1"></feColorMatrix>
            <feMerge>
                <feMergeNode in="shadowMatrixOuter1"></feMergeNode>
                <feMergeNode in="SourceGraphic"></feMergeNode>
            </feMerge>
        </filter>
        <polygon id="path-16" points="0 75 110 75 110 1.2121469e-14 2.31723306e-20 0 9.26893225e-20 75"></polygon>
    </defs>
    <g id="Rev-15-(iPhone-5/SE)" stroke="none" stroke-width="1" fill="none" fill-rule="evenodd" opacity="0.2">
        <g id="rain" transform="translate(0.000000, 2.000000)">
            <g id="dollar-bill" transform="translate(81.782944, 37.116008) rotate(60.000000) translate(-81.782944, -37.116008) translate(67.782944, 18.616008)">
                <g id="Group-3" transform="translate(0.000000, 0.000000)">
                    <mask id="mask-2" fill="white">
                        <use xlink:href="#path-1"></use>
                    </mask>
                    <g id="Clip-2"></g>
                    <path d="M25.7021372,5.16138706 L12.9074283,0.450813829 C11.8204907,0.0494645396 10.6162828,0.611001484 10.2172139,1.70591051 L0.128472179,29.4218954 C-0.268846414,30.5150441 0.289499979,31.7261332 1.37643763,32.1257222 L14.1711465,36.8380557 C15.2580842,37.2376447 16.4622921,36.6761078 16.861361,35.5829591 L26.9501027,7.86521385 C27.3474213,6.77206513 26.7890749,5.56097605 25.7021372,5.16138706" id="Fill-1" fill="#A3BE5F" mask="url(#mask-2)"></path>
                </g>
                <path d="M16.1025123,18.410891 C16.0493941,18.2733447 15.9654331,18.1499057 15.8489159,18.0423375 C15.7341121,17.9347693 15.5833251,17.8465986 15.3982683,17.776062 C15.2320599,17.7125791 15.0795594,17.6896548 14.9459072,17.7072889 C14.8122551,17.7231596 14.6871704,17.767245 14.5689397,17.8377815 C14.4524224,17.9100815 14.3427591,18.0053058 14.2365228,18.1287448 C14.1302865,18.2504203 14.0805953,18.2274959 13.977786,18.3703325 L16.1539169,19.1903199 C16.2018946,19.0192687 16.1727653,19.0104517 16.1744788,18.8535078 C16.1779058,18.696564 16.1539169,18.5484373 16.1025123,18.410891 L16.1025123,18.410891 Z M14.8533788,14.51551 C13.0576424,13.8401225 11.2362037,13.9159493 9.91339023,14.5789929 L12.6344107,6.9328308 L15.2663297,5.67551679 L20.0846605,7.49006955 L21.3063782,10.2004365 L18.5853577,17.8448352 C17.9924906,16.4623188 16.6491152,15.1926609 14.8533788,14.51551 L14.8533788,14.51551 Z M17.2539768,20.5481485 L16.5428789,20.281873 C16.2738612,20.853219 15.9705736,21.0648287 15.5010776,21.2870188 C15.0332952,21.509209 14.4866922,21.5286065 13.8629822,21.3469749 L14.1337135,20.588707 C14.5243889,20.7227264 14.8739407,20.7139094 15.1840822,20.5640192 C15.4942237,20.414129 15.67414,20.3576998 15.8574833,20.0226512 L13.5596947,19.156815 C13.3729244,19.4442514 13.2598341,19.4989173 13.0884852,19.6946562 C12.9171363,19.8886317 12.7440739,20.0402853 12.5658711,20.1443267 C12.3876682,20.2501315 12.194044,20.3047974 11.9901388,20.3083242 C11.7845201,20.311851 11.5566261,20.2660023 11.3013163,20.1690145 C11.0408659,20.0720267 10.8198259,19.9344805 10.6364826,19.7563757 C10.4548527,19.5800343 10.3126331,19.3807686 10.2115373,19.156815 C10.1104415,18.9328615 10.0538963,18.6930372 10.0401884,18.4338154 C10.028194,18.176357 9.99221072,18.1022936 10.0658907,17.8395449 L9.49358544,17.6244084 L9.78830554,16.7920771 L10.3691783,17.0107405 C10.5987858,16.5522529 10.8540957,16.3882554 11.2447711,16.211914 C11.6354466,16.0338092 12.1066561,15.9826702 12.656686,16.0549702 L12.3876682,16.8132381 C11.7725257,16.7180138 11.3749963,16.7691528 11.0802762,17.2787793 L13.2135699,18.082896 L13.4894416,17.7549011 C13.5596947,17.6473328 13.6607905,17.5256573 13.7893022,17.3934012 C13.9195274,17.2593818 14.0737414,17.1412331 14.2536577,17.0407185 C14.433574,16.9402039 14.6374792,16.8731942 14.8653732,16.8414527 C15.0932673,16.8097113 15.3400097,16.8432161 15.6056005,16.9437307 C15.8883261,17.0495356 16.1230741,17.1941355 16.3081309,17.3757671 C16.4931877,17.5556353 16.6336938,17.7637181 16.7313627,17.9947253 C16.8290316,18.2274959 16.8821497,18.4796641 16.8890037,18.7529933 C16.8975711,19.0263224 16.918133,19.1550516 16.8393125,19.4495417 L17.5504104,19.7175806 L17.2539768,20.5481485 Z M14.2502307,30.0317877 L11.6183117,31.2891017 L6.79998083,29.4745489 L5.57826322,26.7659454 L8.29928365,19.1197833 C8.89215082,20.5040631 10.2355261,21.7719576 12.0312626,22.4491085 C13.826999,23.1262594 15.6484377,23.0486692 16.9712511,22.387389 L14.2502307,30.0317877 Z M12.116937,2.24038678 L2.24038678,30.0053365 L14.7659909,34.7259951 L24.6442546,6.95928201 L12.116937,2.24038678 Z M10.8643766,18.7547567 C10.9654724,19.0192687 11.1796586,19.2132442 11.5103619,19.3366832 C11.6594355,19.3931124 11.7965146,19.4160368 11.9233127,19.4072198 C12.046684,19.3966393 12.1632012,19.3596076 12.267724,19.2925979 C12.3722468,19.229115 12.4733427,19.1427077 12.5692981,19.0386663 C12.6669669,18.9328615 12.6943828,18.9998712 12.7886247,18.8658517 L10.7581403,18.1022936 C10.6861737,18.3967837 10.7649942,18.492008 10.8643766,18.7547567 L10.8643766,18.7547567 Z" id="Fill-4" fill="#718D29"></path>
            </g>
            <g id="dollar-bill" transform="translate(30.207350, 77.949029) rotate(87.000000) translate(-30.207350, -77.949029) translate(16.207350, 59.449029)">
                <g id="Group-3" transform="translate(-0.000000, 0.000000)">
                    <mask id="mask-4" fill="white">
                        <use xlink:href="#path-3"></use>
                    </mask>
                    <g id="Clip-2"></g>
                    <path d="M25.7021372,5.16138706 L12.9074283,0.450813829 C11.8204907,0.0494645396 10.6162828,0.611001484 10.2172139,1.70591051 L0.128472179,29.4218954 C-0.268846414,30.5150441 0.289499979,31.7261332 1.37643763,32.1257222 L14.1711465,36.8380557 C15.2580842,37.2376447 16.4622921,36.6761078 16.861361,35.5829591 L26.9501027,7.86521385 C27.3474213,6.77206513 26.7890749,5.56097605 25.7021372,5.16138706" id="Fill-1" fill="#A3BE5F" mask="url(#mask-4)"></path>
                </g>
                <path d="M16.1025123,18.410891 C16.0493941,18.2733447 15.9654331,18.1499057 15.8489159,18.0423375 C15.7341121,17.9347693 15.5833251,17.8465986 15.3982683,17.776062 C15.2320599,17.7125791 15.0795594,17.6896548 14.9459072,17.7072889 C14.8122551,17.7231596 14.6871704,17.767245 14.5689397,17.8377815 C14.4524224,17.9100815 14.3427591,18.0053058 14.2365228,18.1287448 C14.1302865,18.2504203 14.0805953,18.2274959 13.977786,18.3703325 L16.1539169,19.1903199 C16.2018946,19.0192687 16.1727653,19.0104517 16.1744788,18.8535078 C16.1779058,18.696564 16.1539169,18.5484373 16.1025123,18.410891 L16.1025123,18.410891 Z M14.8533788,14.51551 C13.0576424,13.8401225 11.2362037,13.9159493 9.91339023,14.5789929 L12.6344107,6.9328308 L15.2663297,5.67551679 L20.0846605,7.49006955 L21.3063782,10.2004365 L18.5853577,17.8448352 C17.9924906,16.4623188 16.6491152,15.1926609 14.8533788,14.51551 L14.8533788,14.51551 Z M17.2539768,20.5481485 L16.5428789,20.281873 C16.2738612,20.853219 15.9705736,21.0648287 15.5010776,21.2870188 C15.0332952,21.509209 14.4866922,21.5286065 13.8629822,21.3469749 L14.1337135,20.588707 C14.5243889,20.7227264 14.8739407,20.7139094 15.1840822,20.5640192 C15.4942237,20.414129 15.67414,20.3576998 15.8574833,20.0226512 L13.5596947,19.156815 C13.3729244,19.4442514 13.2598341,19.4989173 13.0884852,19.6946562 C12.9171363,19.8886317 12.7440739,20.0402853 12.5658711,20.1443267 C12.3876682,20.2501315 12.194044,20.3047974 11.9901388,20.3083242 C11.7845201,20.311851 11.5566261,20.2660023 11.3013163,20.1690145 C11.0408659,20.0720267 10.8198259,19.9344805 10.6364826,19.7563757 C10.4548527,19.5800343 10.3126331,19.3807686 10.2115373,19.156815 C10.1104415,18.9328615 10.0538963,18.6930372 10.0401884,18.4338154 C10.028194,18.176357 9.99221072,18.1022936 10.0658907,17.8395449 L9.49358544,17.6244084 L9.78830554,16.7920771 L10.3691783,17.0107405 C10.5987858,16.5522529 10.8540957,16.3882554 11.2447711,16.211914 C11.6354466,16.0338092 12.1066561,15.9826702 12.656686,16.0549702 L12.3876682,16.8132381 C11.7725257,16.7180138 11.3749963,16.7691528 11.0802762,17.2787793 L13.2135699,18.082896 L13.4894416,17.7549011 C13.5596947,17.6473328 13.6607905,17.5256573 13.7893022,17.3934012 C13.9195274,17.2593818 14.0737414,17.1412331 14.2536577,17.0407185 C14.433574,16.9402039 14.6374792,16.8731942 14.8653732,16.8414527 C15.0932673,16.8097113 15.3400097,16.8432161 15.6056005,16.9437307 C15.8883261,17.0495356 16.1230741,17.1941355 16.3081309,17.3757671 C16.4931877,17.5556353 16.6336938,17.7637181 16.7313627,17.9947253 C16.8290316,18.2274959 16.8821497,18.4796641 16.8890037,18.7529933 C16.8975711,19.0263224 16.918133,19.1550516 16.8393125,19.4495417 L17.5504104,19.7175806 L17.2539768,20.5481485 Z M14.2502307,30.0317877 L11.6183117,31.2891017 L6.79998083,29.4745489 L5.57826322,26.7659454 L8.29928365,19.1197833 C8.89215082,20.5040631 10.2355261,21.7719576 12.0312626,22.4491085 C13.826999,23.1262594 15.6484377,23.0486692 16.9712511,22.387389 L14.2502307,30.0317877 Z M12.116937,2.24038678 L2.24038678,30.0053365 L14.7659909,34.7259951 L24.6442546,6.95928201 L12.116937,2.24038678 Z M10.8643766,18.7547567 C10.9654724,19.0192687 11.1796586,19.2132442 11.5103619,19.3366832 C11.6594355,19.3931124 11.7965146,19.4160368 11.9233127,19.4072198 C12.046684,19.3966393 12.1632012,19.3596076 12.267724,19.2925979 C12.3722468,19.229115 12.4733427,19.1427077 12.5692981,19.0386663 C12.6669669,18.9328615 12.6943828,18.9998712 12.7886247,18.8658517 L10.7581403,18.1022936 C10.6861737,18.3967837 10.7649942,18.492008 10.8643766,18.7547567 L10.8643766,18.7547567 Z" id="Fill-4" fill="#718D29"></path>
            </g>
            <g id="dollar-bill" transform="translate(87.506747, 153.683350) rotate(85.000000) translate(-87.506747, -153.683350) translate(73.506747, 135.183350)">
                <g id="Group-3" transform="translate(0.000000, -0.000000)">
                    <mask id="mask-6" fill="white">
                        <use xlink:href="#path-5"></use>
                    </mask>
                    <g id="Clip-2"></g>
                    <path d="M25.7021372,5.16138706 L12.9074283,0.450813829 C11.8204907,0.0494645396 10.6162828,0.611001484 10.2172139,1.70591051 L0.128472179,29.4218954 C-0.268846414,30.5150441 0.289499979,31.7261332 1.37643763,32.1257222 L14.1711465,36.8380557 C15.2580842,37.2376447 16.4622921,36.6761078 16.861361,35.5829591 L26.9501027,7.86521385 C27.3474213,6.77206513 26.7890749,5.56097605 25.7021372,5.16138706" id="Fill-1" fill="#A3BE5F" mask="url(#mask-6)"></path>
                </g>
                <path d="M16.1025123,18.410891 C16.0493941,18.2733447 15.9654331,18.1499057 15.8489159,18.0423375 C15.7341121,17.9347693 15.5833251,17.8465986 15.3982683,17.776062 C15.2320599,17.7125791 15.0795594,17.6896548 14.9459072,17.7072889 C14.8122551,17.7231596 14.6871704,17.767245 14.5689397,17.8377815 C14.4524224,17.9100815 14.3427591,18.0053058 14.2365228,18.1287448 C14.1302865,18.2504203 14.0805953,18.2274959 13.977786,18.3703325 L16.1539169,19.1903199 C16.2018946,19.0192687 16.1727653,19.0104517 16.1744788,18.8535078 C16.1779058,18.696564 16.1539169,18.5484373 16.1025123,18.410891 L16.1025123,18.410891 Z M14.8533788,14.51551 C13.0576424,13.8401225 11.2362037,13.9159493 9.91339023,14.5789929 L12.6344107,6.9328308 L15.2663297,5.67551679 L20.0846605,7.49006955 L21.3063782,10.2004365 L18.5853577,17.8448352 C17.9924906,16.4623188 16.6491152,15.1926609 14.8533788,14.51551 L14.8533788,14.51551 Z M17.2539768,20.5481485 L16.5428789,20.281873 C16.2738612,20.853219 15.9705736,21.0648287 15.5010776,21.2870188 C15.0332952,21.509209 14.4866922,21.5286065 13.8629822,21.3469749 L14.1337135,20.588707 C14.5243889,20.7227264 14.8739407,20.7139094 15.1840822,20.5640192 C15.4942237,20.414129 15.67414,20.3576998 15.8574833,20.0226512 L13.5596947,19.156815 C13.3729244,19.4442514 13.2598341,19.4989173 13.0884852,19.6946562 C12.9171363,19.8886317 12.7440739,20.0402853 12.5658711,20.1443267 C12.3876682,20.2501315 12.194044,20.3047974 11.9901388,20.3083242 C11.7845201,20.311851 11.5566261,20.2660023 11.3013163,20.1690145 C11.0408659,20.0720267 10.8198259,19.9344805 10.6364826,19.7563757 C10.4548527,19.5800343 10.3126331,19.3807686 10.2115373,19.156815 C10.1104415,18.9328615 10.0538963,18.6930372 10.0401884,18.4338154 C10.028194,18.176357 9.99221072,18.1022936 10.0658907,17.8395449 L9.49358544,17.6244084 L9.78830554,16.7920771 L10.3691783,17.0107405 C10.5987858,16.5522529 10.8540957,16.3882554 11.2447711,16.211914 C11.6354466,16.0338092 12.1066561,15.9826702 12.656686,16.0549702 L12.3876682,16.8132381 C11.7725257,16.7180138 11.3749963,16.7691528 11.0802762,17.2787793 L13.2135699,18.082896 L13.4894416,17.7549011 C13.5596947,17.6473328 13.6607905,17.5256573 13.7893022,17.3934012 C13.9195274,17.2593818 14.0737414,17.1412331 14.2536577,17.0407185 C14.433574,16.9402039 14.6374792,16.8731942 14.8653732,16.8414527 C15.0932673,16.8097113 15.3400097,16.8432161 15.6056005,16.9437307 C15.8883261,17.0495356 16.1230741,17.1941355 16.3081309,17.3757671 C16.4931877,17.5556353 16.6336938,17.7637181 16.7313627,17.9947253 C16.8290316,18.2274959 16.8821497,18.4796641 16.8890037,18.7529933 C16.8975711,19.0263224 16.918133,19.1550516 16.8393125,19.4495417 L17.5504104,19.7175806 L17.2539768,20.5481485 Z M14.2502307,30.0317877 L11.6183117,31.2891017 L6.79998083,29.4745489 L5.57826322,26.7659454 L8.29928365,19.1197833 C8.89215082,20.5040631 10.2355261,21.7719576 12.0312626,22.4491085 C13.826999,23.1262594 15.6484377,23.0486692 16.9712511,22.387389 L14.2502307,30.0317877 Z M12.116937,2.24038678 L2.24038678,30.0053365 L14.7659909,34.7259951 L24.6442546,6.95928201 L12.116937,2.24038678 Z M10.8643766,18.7547567 C10.9654724,19.0192687 11.1796586,19.2132442 11.5103619,19.3366832 C11.6594355,19.3931124 11.7965146,19.4160368 11.9233127,19.4072198 C12.046684,19.3966393 12.1632012,19.3596076 12.267724,19.2925979 C12.3722468,19.229115 12.4733427,19.1427077 12.5692981,19.0386663 C12.6669669,18.9328615 12.6943828,18.9998712 12.7886247,18.8658517 L10.7581403,18.1022936 C10.6861737,18.3967837 10.7649942,18.492008 10.8643766,18.7547567 L10.8643766,18.7547567 Z" id="Fill-4" fill="#718D29"></path>
            </g>
            <g id="dollar-bill" transform="translate(63.959004, 95.015877) rotate(196.000000) translate(-63.959004, -95.015877) translate(54.959004, 83.015877)">
                <g id="Group-3" transform="translate(0.000000, 0.000000)">
                    <mask id="mask-8" fill="white">
                        <use xlink:href="#path-7"></use>
                    </mask>
                    <g id="Clip-2"></g>
                    <path d="M16.5228025,3.34792674 L8.29763251,0.292419781 C7.59888687,0.0320851068 6.82475323,0.396325287 6.56820894,1.10653655 L0.0825892582,19.0844727 C-0.172829837,19.7935421 0.18610713,20.5791134 0.884852761,20.8383063 L9.11002276,23.8949551 C9.80876839,24.1541479 10.582902,23.7899077 10.8394463,23.0808383 L17.325066,5.10176034 C17.5804851,4.3926909 17.2215481,3.6071196 16.5228025,3.34792674" id="Fill-1" fill="#A3BE5F" mask="url(#mask-8)"></path>
                </g>
                <path d="M10.351615,11.9421996 C10.3174676,11.8529804 10.2634927,11.7729118 10.1885888,11.7031378 C10.1147864,11.6333638 10.0178519,11.5761721 9.89888677,11.5304186 C9.79203849,11.4892405 9.69400245,11.4743707 9.60808322,11.485809 C9.52216399,11.4961035 9.4417524,11.5246994 9.36574693,11.5704529 C9.29084298,11.6173501 9.22034515,11.6791173 9.15205038,11.7591858 C9.0837556,11.8381105 9.05181127,11.8232406 8.98571956,11.9158913 L10.3846609,12.447775 C10.4155037,12.336823 10.3967777,12.3311038 10.3978792,12.2293024 C10.4000823,12.127501 10.3846609,12.0314188 10.351615,11.9421996 L10.351615,11.9421996 Z M9.54860067,9.41546593 C8.3941987,8.97737676 7.2232738,9.02656171 6.37289372,9.45664403 L8.12212114,4.49697133 L9.81406907,3.6814163 L12.9115675,4.85842349 L13.6969574,6.61649935 L11.94773,11.5750282 C11.5666011,10.6782608 10.7030026,9.85469894 9.54860067,9.41546593 L9.54860067,9.41546593 Z M11.0918422,13.3285287 L10.6347079,13.1558095 C10.4617679,13.5264124 10.2667973,13.6636727 9.96497848,13.807796 C9.66426118,13.9519193 9.31287355,13.9645015 8.91191714,13.8466864 L9.08595866,13.354837 C9.33710718,13.4417685 9.56181902,13.4360493 9.76119569,13.3388233 C9.96057237,13.2415972 10.0762329,13.2049944 10.1940964,12.9876656 L8.71694658,12.4260422 C8.59687996,12.6124874 8.52417907,12.6479463 8.41402621,12.7749121 C8.30387335,12.9007341 8.19261897,12.999104 8.07805999,13.0665903 C7.96350102,13.1352205 7.83902829,13.1706794 7.70794638,13.172967 C7.57576295,13.1752547 7.42925965,13.145515 7.26513188,13.082604 C7.09769954,13.019693 6.95560235,12.9304738 6.83773879,12.8149464 C6.72097676,12.7005628 6.62954988,12.5713093 6.56455969,12.4260422 C6.49956951,12.280775 6.46321906,12.1252133 6.45440683,11.9570694 C6.44669613,11.7900694 6.42356403,11.7420283 6.47092976,11.5715967 L6.10301921,11.4320487 L6.29248213,10.8921581 L6.66590033,11.0339938 C6.81350516,10.7365965 6.97763292,10.6302197 7.22878144,10.5158361 C7.47992996,10.4003087 7.78285033,10.3671374 8.13644101,10.4140347 L7.96350102,10.9058842 C7.56805225,10.844117 7.31249761,10.8772883 7.12303469,11.2078569 L8.4944378,11.7294461 L8.67178391,11.5166926 C8.71694658,11.4469186 8.78193677,11.3679939 8.86455141,11.2822062 C8.94826759,11.1952747 9.04740516,11.1186377 9.16306566,11.053439 C9.27872617,10.9882404 9.40980807,10.9447746 9.55631137,10.9241856 C9.70281468,10.9035965 9.8614348,10.9253294 10.0321717,10.990528 C10.2139239,11.0591582 10.3648334,11.1529527 10.4837985,11.2707679 C10.6027635,11.3874391 10.6930889,11.5224118 10.755876,11.6722543 C10.8186631,11.8232406 10.8528105,11.9868092 10.8572167,12.1641037 C10.8627243,12.3413983 10.8759426,12.4248983 10.8252723,12.6159189 L11.2824067,12.789782 L11.0918422,13.3285287 Z M9.16086261,19.4800785 L7.46891468,20.2956335 L4.37141625,19.1186263 L3.58602636,17.3616943 L5.33525378,12.4020216 C5.71638267,13.2999328 6.57998109,14.1223509 7.73438307,14.5615839 C8.88878504,15.0008169 10.0597099,14.9504881 10.91009,14.5215496 L9.16086261,19.4800785 Z M7.7894595,1.45322386 L1.44024865,19.462921 L9.49242271,22.5249698 L15.8427351,4.51412887 L7.7894595,1.45322386 Z M6.98424209,12.1652476 C7.04923228,12.336823 7.18692335,12.4626449 7.39951837,12.5427134 C7.49535136,12.5793162 7.58347365,12.594186 7.66498677,12.5884669 C7.74429683,12.5816039 7.81920077,12.5575833 7.88639401,12.5141175 C7.95358726,12.4729394 8.01857745,12.4168915 8.08026305,12.3494052 C8.14305018,12.280775 8.16067464,12.3242408 8.22125871,12.2373092 L6.91594732,11.7420283 C6.86968312,11.9330489 6.92035343,11.994816 6.98424209,12.1652476 L6.98424209,12.1652476 Z" id="Fill-4" fill="#718D29"></path>
            </g>
            <g id="dollar-bill" transform="translate(108.890904, 126.549833) rotate(328.000000) translate(-108.890904, -126.549833) translate(97.890904, 111.549833)">
                <g id="Group-3" transform="translate(0.000000, -0.000000)">
                    <mask id="mask-10" fill="white">
                        <use xlink:href="#path-9"></use>
                    </mask>
                    <g id="Clip-2"></g>
                    <path d="M20.1945364,4.18490843 L10.1415508,0.365524726 C9.2875284,0.0401063834 8.34136506,0.495406608 8.02781092,1.38317068 L0.100942427,23.8555909 C-0.211236468,24.7419277 0.22746427,25.7238918 1.08148671,26.0478829 L11.1344723,29.8686938 C11.9884947,30.1926849 12.934658,29.7373847 13.2482122,28.8510479 L21.1750807,6.37720042 C21.4872596,5.49086362 21.0485588,4.5088995 20.1945364,4.18490843" id="Fill-1" fill="#A3BE5F" mask="url(#mask-10)"></path>
                </g>
                <path d="M12.6519739,14.9277494 C12.6102382,14.8162254 12.5442689,14.7161398 12.4527196,14.6289223 C12.3625167,14.5417048 12.2440412,14.4702151 12.0986394,14.4130233 C11.968047,14.3615506 11.8482252,14.3429633 11.7432128,14.3572613 C11.6382004,14.3701294 11.5399196,14.4058743 11.447024,14.4630661 C11.3554748,14.5216877 11.2693107,14.5988966 11.1858393,14.6989823 C11.102368,14.7976381 11.0633249,14.7790508 10.9825461,14.8948642 L12.6923633,15.5597188 C12.7300601,15.4210287 12.7071727,15.4138797 12.7085191,15.286628 C12.7112117,15.1593762 12.6923633,15.0392734 12.6519739,14.9277494 L12.6519739,14.9277494 Z M11.6705119,11.7693324 C10.2595762,11.221721 8.82844575,11.2832021 7.78909232,11.820805 L9.92703694,5.62121416 L11.9949733,4.60177037 L15.7808047,6.07302937 L16.7407257,8.27062419 L14.6027811,14.4687853 C14.1369569,13.347826 13.0814477,12.3183737 11.6705119,11.7693324 L11.6705119,11.7693324 Z M13.5566961,16.6606609 L12.9979763,16.4447619 C12.7866052,16.9080154 12.5483078,17.0795908 12.1794181,17.259745 C11.8118748,17.4398992 11.382401,17.4556269 10.8923432,17.308358 L11.1050606,16.6935462 C11.4120199,16.8022106 11.6866677,16.7950616 11.9303503,16.6735291 C12.1740329,16.5519965 12.3153957,16.5062431 12.4594512,16.234582 L10.6540458,15.5325527 C10.5072977,15.7656093 10.4184411,15.8099329 10.2838098,15.9686402 C10.1491785,16.1259176 10.013201,16.24888 9.87318443,16.3332379 C9.73316791,16.4190256 9.58103457,16.4633492 9.42082336,16.4662088 C9.25926583,16.4690684 9.08020623,16.4318937 8.87960564,16.353255 C8.6749661,16.2746163 8.50129176,16.1630923 8.3572363,16.018683 C8.21452715,15.8757035 8.10278319,15.7141367 8.02335074,15.5325527 C7.94391829,15.3509687 7.89948997,15.1565166 7.88871946,14.9463368 C7.87929528,14.7375867 7.85102271,14.6775353 7.90891416,14.4644959 L7.4592457,14.2900609 L7.69081149,13.6151977 L8.14721151,13.7924923 C8.32761742,13.4207456 8.52821801,13.2877746 8.83517732,13.1447952 C9.14213662,13.0003859 9.51237262,12.9589218 9.94453901,13.0175434 L9.73316791,13.6323552 C9.24984164,13.5551463 8.93749708,13.5966104 8.70593129,14.0098211 L10.3820906,14.6618076 L10.598847,14.3958657 C10.6540458,14.3086482 10.7334783,14.2099924 10.8344517,14.1027578 C10.9367715,13.9940933 11.0579396,13.8982971 11.1993025,13.8167988 C11.3406653,13.7353005 11.5008765,13.6809683 11.6799361,13.6552319 C11.8589957,13.6294956 12.0528648,13.6566617 12.2615432,13.7381601 C12.4836848,13.8239477 12.6681297,13.9411909 12.8135314,14.0884598 C12.9589332,14.2342989 13.0693309,14.4030147 13.1460707,14.5903178 C13.2228105,14.7790508 13.2645462,14.9835114 13.2699315,15.2051297 C13.276663,15.4267479 13.2928188,15.5311229 13.2308884,15.7698987 L13.7896082,15.9872275 L13.5566961,16.6606609 Z M11.1966099,24.3500981 L9.12867349,25.3695419 L5.34284208,23.8982829 L4.38292111,21.7021179 L6.52086573,15.502527 C6.98668993,16.624916 8.04219912,17.6529386 9.45313486,18.2019799 C10.8640706,18.7510211 12.295201,18.6881101 13.3345545,18.151937 L11.1966099,24.3500981 Z M9.5204505,1.81652982 L1.7603039,24.3286512 L11.60185,28.1562123 L19.3633429,5.64266109 L9.5204505,1.81652982 Z M8.53629589,15.2065595 C8.61572834,15.4210287 8.78401743,15.5783061 9.04385579,15.6783918 C9.160985,15.7241452 9.26869002,15.7427326 9.36831716,15.7355836 C9.46525168,15.7270048 9.55680094,15.6969791 9.63892602,15.6426469 C9.72105109,15.5911743 9.80048355,15.5211143 9.87587706,15.4367564 C9.95261689,15.3509687 9.97415789,15.405301 10.0482051,15.2966365 L8.4528245,14.6775353 C8.39627936,14.9163111 8.45820975,14.99352 8.53629589,15.2065595 L8.53629589,15.2065595 Z" id="Fill-4" fill="#718D29"></path>
            </g>
            <g id="dollar-bill" transform="translate(85.000000, 99.500000) rotate(45.000000) translate(-85.000000, -99.500000) translate(68.000000, 77.000000)">
                <g id="Group-3" transform="translate(0.000000, -0.000000)">
                    <mask id="mask-12" fill="white">
                        <use xlink:href="#path-11"></use>
                    </mask>
                    <g id="Clip-2"></g>
                    <path d="M31.2097381,6.27736265 L15.6733058,0.548287089 C14.353453,0.0601595752 12.8912005,0.743109912 12.4066169,2.07475602 L0.156001932,35.7833863 C-0.32645636,37.1128915 0.351535689,38.5858377 1.67138855,39.0718243 L17.2078208,44.8030408 C18.5276736,45.2890274 19.9899261,44.606077 20.4745097,43.2765718 L32.7251247,9.56580063 C33.207583,8.23629543 32.5295909,6.76334925 31.2097381,6.27736265" id="Fill-1" fill="#A3BE5F" mask="url(#mask-12)"></path>
                </g>
                <path d="M19.5530506,22.3916242 C19.48855,22.2243382 19.3865974,22.0742097 19.2451122,21.9433835 C19.1057076,21.8125572 18.9226091,21.7053226 18.6978972,21.6195349 C18.4960727,21.542326 18.3108935,21.514445 18.1486016,21.5358919 C17.9863098,21.5551941 17.8344212,21.6088114 17.6908553,21.6945991 C17.5493701,21.7825315 17.4162075,21.8983449 17.2872063,22.0484734 C17.158205,22.1964572 17.0978657,22.1685762 16.9730258,22.3422962 L19.6154706,23.3395782 C19.6737292,23.131543 19.6383579,23.1208196 19.6404385,22.929942 C19.6445999,22.7390643 19.6154706,22.5589102 19.5530506,22.3916242 L19.5530506,22.3916242 Z M18.0362457,17.6539986 C15.8557087,16.8325814 13.6439616,16.9248032 12.0376881,17.7312076 L15.3417844,8.43182125 L18.537686,6.90265556 L24.3885164,9.10954405 L25.8720306,12.4059363 L22.5679344,21.7031779 C21.8480242,20.021739 20.2167828,18.4775605 18.0362457,17.6539986 L18.0362457,17.6539986 Z M20.9512576,24.9909914 L20.0877815,24.6671428 C19.7611171,25.3620232 19.3928394,25.6193862 18.8227371,25.8896175 C18.2547156,26.1598487 17.5909834,26.1834404 16.8336213,25.962537 L17.1623664,25.0403193 C17.636758,25.2033159 18.0612137,25.1925925 18.4378141,25.0102936 C18.8144145,24.8279947 19.0328843,24.7593646 19.2555155,24.351873 L16.4653435,23.2988291 C16.238551,23.6484139 16.1012271,23.7148994 15.8931606,23.9529602 C15.6850941,24.1888764 15.4749469,24.37332 15.2585578,24.4998568 C15.0421686,24.6285384 14.8070534,24.6950238 14.5594543,24.6993132 C14.3097745,24.7036026 14.033046,24.6478406 13.7230269,24.5298825 C13.4067658,24.4119244 13.13836,24.2446384 12.9157288,24.0280245 C12.6951783,23.8135552 12.5224831,23.571205 12.3997239,23.2988291 C12.2769646,23.0264531 12.2083027,22.734775 12.1916574,22.4195052 C12.1770927,22.1063801 12.1333987,22.016303 12.2228673,21.6967438 L11.5279252,21.4350913 L11.8857996,20.4227965 L12.5911451,20.6887384 C12.8699542,20.1311184 13.1799733,19.931662 13.6543649,19.7171927 C14.1287566,19.5005788 14.7009395,19.4383827 15.368833,19.5263151 L15.0421686,20.4485328 C14.2952098,20.3327194 13.8124955,20.3949155 13.4546211,21.0147316 L16.0450492,21.9927114 L16.3800363,21.5937986 C16.4653435,21.4629724 16.5881028,21.3149886 16.7441527,21.1541366 C16.9022832,20.99114 17.0895431,20.8474456 17.3080129,20.7251982 C17.5264828,20.6029507 17.7740819,20.5214524 18.0508104,20.4828479 C18.3275388,20.4442435 18.6271546,20.4849926 18.9496577,20.6072401 C19.2929675,20.7359216 19.5780186,20.9117864 19.8027304,21.1326897 C20.0274422,21.3514483 20.1980568,21.6045221 20.3166547,21.8854768 C20.4352526,22.1685762 20.4997532,22.4752672 20.5080759,22.8076945 C20.5184792,23.1401218 20.5434472,23.2966844 20.4477366,23.654848 L21.3112126,23.9808412 L20.9512576,24.9909914 Z M17.3038516,36.5251472 L14.1079499,38.0543129 L8.25711958,35.8474244 L6.77360534,32.5531768 L10.0777016,23.2537905 C10.7976117,24.9373741 12.4288532,26.4794079 14.6093902,27.3029698 C16.7899273,28.1265317 19.0016743,28.0321652 20.6079478,27.2279056 L17.3038516,36.5251472 Z M14.7134235,2.72479473 L2.72046966,36.4929768 L17.9301318,42.2343184 L29.9251663,8.46399163 L14.7134235,2.72479473 Z M13.1924573,22.8098392 C13.3152165,23.131543 13.5752997,23.3674592 13.976868,23.5175877 C14.1578859,23.5862178 14.3243391,23.6140988 14.4783083,23.6033754 C14.6281162,23.5905072 14.7696015,23.5454687 14.896522,23.4639704 C15.0234426,23.3867614 15.1462018,23.2816715 15.2627191,23.1551347 C15.381317,23.0264531 15.4146076,23.1079514 15.5290442,22.9449548 L13.063456,22.016303 C12.9760681,22.3744666 13.0717787,22.49028 13.1924573,22.8098392 L13.1924573,22.8098392 Z" id="Fill-4" fill="#718D29"></path>
            </g>
            <g id="dollar-bill" transform="translate(36.500000, 122.000000) rotate(112.000000) translate(-36.500000, -122.000000) translate(14.000000, 92.000000)">
                <g id="Group-3" transform="translate(0.000000, 0.000000)">
                    <mask id="mask-14" fill="white">
                        <use xlink:href="#path-13"></use>
                    </mask>
                    <g id="Clip-2"></g>
                    <path d="M41.3070063,8.36981686 L20.7440813,0.731049452 C18.9972172,0.0802127669 17.0618831,0.990813217 16.4205223,2.76634137 L0.206473146,47.7111817 C-0.432074594,49.4838553 0.465267824,51.4477836 2.2121319,52.0957657 L22.7750569,59.7373877 C24.521921,60.3853698 26.4572551,59.4747694 27.0986158,57.7020958 L43.312665,12.7544008 C43.9512128,10.9817272 43.0538703,9.017799 41.3070063,8.36981686" id="Fill-1" fill="#A3BE5F" mask="url(#mask-14)"></path>
                </g>
                <path d="M25.8790376,29.8554989 C25.7936691,29.6324509 25.6587318,29.4322796 25.471472,29.2578446 C25.2869659,29.0834096 25.0446296,28.9404301 24.7472169,28.8260465 C24.4800962,28.7231013 24.2350061,28.6859266 24.020208,28.7145225 C23.80541,28.7402588 23.604381,28.8117486 23.4143673,28.9261322 C23.2271075,29.0433754 23.0508629,29.1977932 22.8801259,29.3979645 C22.709389,29.5952762 22.6295282,29.5581015 22.4642989,29.7897283 L25.9616522,31.1194376 C26.0387592,30.8420574 25.9919442,30.8277594 25.9946981,30.5732559 C26.0002057,30.3187524 25.9616522,30.0785469 25.8790376,29.8554989 L25.8790376,29.8554989 Z M23.8715017,23.5386648 C20.9854967,22.4434419 18.0581845,22.5664043 15.9322343,23.6416101 L20.3053028,11.2424283 L24.5351727,9.20354074 L32.2789187,12.1460587 L34.2423935,16.5412484 L29.8693249,28.9375705 C28.9165027,26.6956521 26.7575066,24.6367473 23.8715017,23.5386648 L23.8715017,23.5386648 Z M27.7296056,33.3213218 L26.5867697,32.8895238 C26.1544197,33.8160309 25.6669933,34.1591817 24.9124462,34.51949 C24.1606529,34.8797983 23.2821839,34.9112538 22.2797929,34.616716 L22.7148967,33.3870924 C23.342768,33.6044212 23.9045475,33.5901233 24.4029892,33.3470581 C24.9014309,33.103993 25.1905822,33.0124861 25.4852411,32.469164 L21.7923664,31.0651054 C21.4921999,31.5312186 21.3104477,31.6198658 21.0350655,31.9372803 C20.7596834,32.2518352 20.4815474,32.4977599 20.19515,32.6664757 C19.9087525,32.8380511 19.5975707,32.9266984 19.269866,32.9324176 C18.9394074,32.9381368 18.5731491,32.8637874 18.1628297,32.70651 C17.7442488,32.5492326 17.3890059,32.3261845 17.094347,32.037366 C16.8024419,31.751407 16.5738747,31.4282733 16.4113992,31.0651054 C16.2489238,30.7019375 16.1580477,30.3130333 16.1360171,29.8926736 C16.1167403,29.4751734 16.0589101,29.3550707 16.1773244,28.9289918 L15.257548,28.5801218 L15.7312053,27.2303954 L16.6647508,27.5849845 C17.0337629,26.8414911 17.4440823,26.5755493 18.0719536,26.2895903 C18.6998249,26.0007717 19.4571258,25.9178436 20.3411025,26.0350868 L19.9087525,27.2647105 C18.9201306,27.1102926 18.281244,27.1932207 17.8075867,28.0196422 L21.2360945,29.3236152 L21.6794598,28.7917315 C21.7923664,28.6172965 21.9548419,28.4199848 22.1613785,28.2055155 C22.370669,27.9881867 22.6185129,27.7965942 22.9076642,27.6335975 C23.1968154,27.4706009 23.5245202,27.3619365 23.8907784,27.3104639 C24.2570367,27.2589913 24.653587,27.3133235 25.0804293,27.4763201 C25.5348099,27.6478955 25.9120834,27.8823819 26.2094961,28.1769196 C26.5069089,28.4685978 26.7327222,28.8060294 26.88969,29.1806357 C27.0466579,29.5581015 27.1320263,29.9670229 27.1430416,30.4102593 C27.1568107,30.8534958 27.1898566,31.0622458 27.0631808,31.5397973 L28.2060167,31.974455 L27.7296056,33.3213218 Z M22.9021565,48.7001962 L18.6722867,50.7390838 L10.9285406,47.7965658 L8.9650659,43.4042358 L13.3381344,31.005054 C14.2909567,33.2498321 16.4499527,35.3058772 19.3359577,36.4039597 C22.2219626,37.5020422 25.1492749,37.3762203 27.2752251,36.3038741 L22.9021565,48.7001962 Z M19.4736487,3.63305965 L3.60062161,48.6573024 L23.7310568,56.3124245 L39.6068377,11.2853222 L19.4736487,3.63305965 Z M17.4606052,30.4131189 C17.6230807,30.8420574 17.9673084,31.1566123 18.4987959,31.3567836 C18.7383784,31.4482905 18.9586841,31.4854651 19.1624669,31.4711672 C19.3607421,31.4540096 19.5480019,31.3939582 19.715985,31.2852938 C19.8839681,31.1823486 20.0464436,31.0422287 20.2006576,30.8735129 C20.3576254,30.7019375 20.4016866,30.8106019 20.5531468,30.5932731 L17.2898683,29.3550707 C17.1742078,29.8326222 17.3008836,29.98704 17.4606052,30.4131189 L17.4606052,30.4131189 Z" id="Fill-4" fill="#718D29"></path>
            </g>
            <g id="cloud" filter="url(#filter-15)" transform="translate(4.000000, 0.000000)">
                <mask id="mask-17" fill="white">
                    <use xlink:href="#path-16"></use>
                </mask>
                <g id="Clip-2"></g>
                <path d="M95.4494867,20.7374215 C89.1086431,8.06398417 76.1550956,0 61.818309,0 C51.3080851,0 41.4766572,4.29470703 34.3792211,11.8835866 C33.1891909,11.7419934 32.0034352,11.6703439 30.8322129,11.6703439 C13.8306818,11.6703439 0,25.4705555 0,42.434435 C0,59.3974616 13.8306818,73.1985261 30.8322129,73.1985261 C35.2777281,73.1985261 39.671094,72.2261396 43.7088188,70.3649577 C49.2400656,73.4066509 55.4389946,75 61.818309,75 C70.2972744,75 78.4693283,72.1579019 85.0845969,66.9479574 C85.3385042,66.9573401 85.5898468,66.9624579 85.8394796,66.9624579 C99.1623468,66.9624579 110,56.1510554 110,42.8583614 C110,33.1259667 104.244768,24.5211992 95.4494867,20.7374215" id="Fill-1" fill="#FFFFFF" mask="url(#mask-17)"></path>
            </g>
        </g>
    </g>
</svg>