<?xml version="1.0" encoding="utf-8"?>
<!-- Generator: Adobe Illustrator 21.0.0, SVG Export Plug-In . SVG Version: 6.00 Build 0)  -->
<svg version="1.1" id="Layer_1" xmlns="http://www.w3.org/2000/svg" xmlns:xlink="http://www.w3.org/1999/xlink" x="0px" y="0px"
	 viewBox="0 0 262.2 305.8" style="enable-background:new 0 0 262.2 305.8;" xml:space="preserve">
<style type="text/css">
	.st0{fill:#3C3D3A;}
	.st1{font-family:'HelveticaNeue-Light';}
	.st2{font-size:16px;}
	.st3{fill:#7AB039;}
	.st4{fill:#FFFFFF;}
	.st5{font-family:'HelveticaNeue';}
	.st6{font-size:13px;}
	.st7{fill:none;stroke:#D5D7D9;stroke-miterlimit:10;}
	.st8{font-size:14px;}
	.st9{font-family:'HelveticaNeue-Medium';}
	.st10{fill:#A1A098;}
	.st11{fill:#D5D7D9;}
</style>
<title>Asset 3</title>
<g id="Layer_2">
	<g id="progress_b">
		<text transform="matrix(1 0 0 1 40.81 169.96)" class="st0 st1 st2">This campaign has content that </text>
		<text transform="matrix(1 0 0 1 40.81 189.16)" class="st0 st1 st2">needs your app</text>
		<text transform="matrix(1 0 0 1 148.39 189.16)" class="st0 st1 st2">r</text>
		<text transform="matrix(1 0 0 1 153.14 189.16)" class="st0 st1 st2">oval.</text>
		<path class="st3" d="M167.2,220.1c0,8.8-7.2,16-16,16H56.7c-8.8,0-16-7.2-16-16l0,0c0-8.8,7.2-16,16-16h94.5
			C160.1,204.1,167.2,211.3,167.2,220.1z"/>
		<text transform="matrix(1 0 0 1 55.31 224.08)" class="st4 st5 st6">Review Content</text>
		<line class="st7" x1="16.5" y1="46.6" x2="16.4" y2="36"/>
		<line class="st7" x1="16.5" y1="96.6" x2="16.4" y2="86"/>
		<path class="st7" d="M257.1,140.2"/>
		<path class="st7" d="M171,140.3"/>
		<text transform="matrix(1 0 0 1 40.73 21.66)" class="st3 st5 st8">C</text>
		<text transform="matrix(1 0 0 1 51.19 21.66)" class="st3 st5 st8">r</text>
		<text transform="matrix(1 0 0 1 55.95 21.66)" class="st3 st5 st8">eate Campaign</text>
		<path class="st3" d="M16.4,0C7.4,0,0,7.4,0,16.4s7.4,16.4,16.4,16.4s16.4-7.4,16.4-16.4l0,0C32.8,7.4,25.5,0,16.4,0z M26.4,6.5
			c-0.6-0.6-1.3-1.2-2.1-1.7C25,5.3,25.7,5.9,26.4,6.5z M23.1,4.1c-0.8-0.4-1.6-0.8-2.5-1.1C21.5,3.3,22.3,3.6,23.1,4.1z M20.6,29.8
			c0.9-0.3,1.7-0.6,2.5-1.1C22.3,29.2,21.5,29.6,20.6,29.8z M24.3,28.1c0.7-0.5,1.4-1.1,2.1-1.7C25.7,27,25,27.6,24.3,28.1
			L24.3,28.1z M27.3,25.3c4.3-5.2,4.3-12.7,0-17.9C31.6,12.7,31.6,20.2,27.3,25.3z"/>
		<path class="st4" d="M9.4,17.4c-0.2-0.2-0.2-0.6,0-0.9l1.5-1.5c0.2-0.2,0.6-0.2,0.8,0c0,0,0,0,0,0l2.4,2.4c0.2,0.2,0.6,0.2,0.8,0
			c0,0,0,0,0,0l6.7-6.7c0.2-0.2,0.6-0.2,0.9,0l1.5,1.5c0.2,0.2,0.2,0.6,0,0.8c0,0,0,0,0,0L16,21.2c-0.3,0.3-0.6,0.4-1,0.4h-0.7
			c-0.4,0-0.7-0.2-1-0.4L9.4,17.4z"/>
		<text transform="matrix(1 0 0 1 40.73 72.05)" class="st3 st5 st8">Build Content</text>
		<path class="st3" d="M16.4,49.8C7.4,49.8,0,57.2,0,66.2s7.4,16.4,16.4,16.4c9.1,0,16.4-7.4,16.4-16.4
			C32.8,57.2,25.5,49.8,16.4,49.8z"/>
		<path class="st3" d="M16.4,49.8C7.4,49.8,0,57.2,0,66.2s7.4,16.4,16.4,16.4s16.4-7.4,16.4-16.4l0,0C32.8,57.2,25.5,49.8,16.4,49.8
			z M26.4,56.3c-0.6-0.6-1.3-1.2-2.1-1.7C25,55.1,25.7,55.7,26.4,56.3z M23.1,53.9c-0.8-0.4-1.6-0.8-2.5-1.1
			C21.5,53.1,22.3,53.5,23.1,53.9z M20.6,79.7c0.9-0.3,1.7-0.6,2.5-1.1C22.3,79,21.5,79.4,20.6,79.7z M24.3,77.9
			c0.7-0.5,1.4-1.1,2.1-1.7C25.7,76.8,25,77.4,24.3,77.9L24.3,77.9z M27.3,75.2c4.3-5.2,4.3-12.7,0-17.8
			C31.6,62.5,31.6,70,27.3,75.2z"/>
		<path class="st4" d="M9.4,67.2c-0.2-0.2-0.2-0.6,0-0.8l1.5-1.5c0.2-0.2,0.6-0.2,0.8,0c0,0,0,0,0,0l2.4,2.4c0.2,0.2,0.6,0.2,0.8,0
			c0,0,0,0,0,0l6.7-6.7c0.2-0.2,0.6-0.2,0.9,0l1.5,1.5c0.2,0.2,0.2,0.6,0,0.8c0,0,0,0,0,0L16,71c-0.3,0.3-0.6,0.4-1,0.4h-0.7
			c-0.4,0-0.7-0.2-1-0.4L9.4,67.2z"/>
		<text transform="matrix(1 0 0 1 40.82 121.93)" class="st3 st5 st8">App</text>
		<text transform="matrix(1 0 0 1 66.76 121.93)" class="st3 st5 st8">r</text>
		<text transform="matrix(1 0 0 1 71.27 121.93)" class="st3 st5 st8">ove Content</text>
		<path class="st3" d="M16.4,99.7C7.4,99.7,0,107.1,0,116.1s7.4,16.4,16.4,16.4s16.4-7.4,16.4-16.4l0,0
			C32.8,107.1,25.5,99.7,16.4,99.7z"/>
		<text transform="matrix(1 0 0 1 12.42 121.25)" class="st4 st9 st2">3</text>
		<text transform="matrix(1 0 0 1 40.73 295.18)" class="st10 st1 st8">Launch</text>
		<path class="st11" d="M16.4,273C7.4,273,0,280.3,0,289.4c0,9.1,7.4,16.4,16.4,16.4s16.4-7.4,16.4-16.4
			C32.8,280.3,25.5,273,16.4,273z"/>
		<text transform="matrix(1 0 0 1 12.42 294.5)" class="st4 st9 st2">4</text>
		<line class="st7" x1="16.5" y1="265.6" x2="16.4" y2="136"/>
	</g>
</g>
</svg>
