<svg id="Layer_1" data-name="Layer 1" xmlns="http://www.w3.org/2000/svg" viewBox="0 0 963.33 255.72"><defs><style>.cls-1,.cls-3{opacity:0.2;}.cls-2,.cls-3{fill:#fff;}</style></defs><title>Artboard 1</title><g class="cls-1"><path class="cls-2" d="M-5.3,47.89l-5.76-7.39-5.83,5.68V5.74H17.54V46.11l-6-5.63L5.79,47.89.23,40.65ZM.22,37.36,5.8,44.62l5.49-7.09,4.26,4V7.74H-14.89v33.7l4-3.93,5.54,7.11Z"/><rect class="cls-2" x="-9" y="14.61" width="18" height="2"/><rect class="cls-2" x="-9" y="22.23" width="18" height="2"/><rect class="cls-2" x="-9" y="29.86" width="18" height="2"/></g><path class="cls-3" d="M594.46,47H561.78c-2.85,0-5-1-6-2.83s-.8-4.07.6-6.43l16.33-27.42c1.41-2.38,3.36-3.68,5.47-3.68s4.06,1.31,5.47,3.69l16.28,27.4c1.4,2.36,1.61,4.64.59,6.43S597.31,47,594.46,47ZM578.16,8.64c-1.38,0-2.71,1-3.75,2.71L558.07,38.76c-1,1.71-1.23,3.28-.58,4.41S559.71,45,561.78,45h32.68c2.07,0,3.64-.66,4.29-1.82s.44-2.71-.57-4.42l-16.28-27.4C580.87,9.6,579.54,8.64,578.16,8.64Zm1,25.17V18a1,1,0,1,0-2,0V33.81a1,1,0,0,0,2,0Zm-1,3.29a1.67,1.67,0,1,0,1.67,1.67A1.67,1.67,0,0,0,578.13,37.09Z"/><path class="cls-3" d="M187.3,47.89l-5.76-7.39-5.83,5.68V5.74h34.43V46.11l-6-5.63-5.73,7.41-5.56-7.24Zm5.52-10.53,5.57,7.26,5.49-7.09,4.26,4V7.74H177.71v33.7l4-3.93,5.54,7.11Zm8.78-22.75h-18v2h18Zm0,7.62h-18v2h18Zm0,7.63h-18v2h18Zm-14.3,18-5.76-7.39-5.83,5.68V5.74h34.43V46.11l-6-5.63-5.73,7.41-5.56-7.24Zm5.52-10.53,5.57,7.26,5.49-7.09,4.26,4V7.74H177.71v33.7l4-3.93,5.54,7.11Zm8.78-22.75h-18v2h18Zm0,7.62h-18v2h18Zm0,7.63h-18v2h18Zm14,18.23L171.66,4.14l-1.41,1.41L214.19,49.5Zm0-42.53-1.41-1.41L170.25,48.08l1.41,1.41Z"/><path class="cls-3" d="M366.88,42.92h-3.39V10.72h3.39Zm40.67-32.2h-3.39v32.2h3.39Zm-32.54,0h-3.39V33.37H375Zm16.27,0H387.9V33.37h3.39Zm8.13,0H396V33.37h3.39Zm-16.27,0h-3.39V33.37h3.39Z"/><g class="cls-1"><path class="cls-2" d="M289.59,153.69a12.7,12.7,0,1,0-3,3.05L296.6,166.8a2.16,2.16,0,1,0,3-3Zm-10.38,1.15a8.46,8.46,0,1,1,8.46-8.46A8.47,8.47,0,0,1,279.21,154.85Z"/><polygon class="cls-2" points="311.95 149.31 306.64 149.31 306.64 144 302.4 144 302.4 149.31 297.09 149.31 297.09 153.55 302.4 153.55 302.4 158.86 306.64 158.86 306.64 153.55 311.95 153.55 311.95 149.31"/></g><g class="cls-1"><circle class="cls-2" cx="481.83" cy="150.61" r="7.73"/><rect class="cls-2" x="480.26" y="129.03" width="1.99" height="9.17"/><rect class="cls-2" x="468.41" y="134.41" width="1.99" height="9.16" transform="translate(39.2 372.63) rotate(-45)"/><rect class="cls-2" x="460.25" y="150.18" width="9.16" height="1.99"/><rect class="cls-2" x="465.63" y="162.03" width="9.16" height="1.99" transform="translate(22.44 380.24) rotate(-45)"/><rect class="cls-2" x="481.4" y="163.02" width="1.99" height="9.17"/><rect class="cls-2" x="493.25" y="157.64" width="1.99" height="9.16" transform="translate(30.05 397) rotate(-45)"/><rect class="cls-2" x="494.24" y="149.04" width="9.16" height="1.99"/><rect class="cls-2" x="488.85" y="137.19" width="9.16" height="1.99" transform="translate(46.82 389.4) rotate(-45)"/></g><path class="cls-3" d="M674.43,134.2a17.91,17.91,0,1,0,17.91,17.91A17.93,17.93,0,0,0,674.43,134.2Zm-16.07,17.91A16.09,16.09,0,0,1,674.43,136h0v32.14h0A16.09,16.09,0,0,1,658.36,152.11Z"/><g class="cls-1"><rect class="cls-2" x="83.18" y="164.26" width="26.89" height="3.23"/><polygon class="cls-2" points="94.22 161.31 96.44 163.53 97.7 162.26 97.7 162.27 107.25 152.72 104.97 150.43 98.13 157.27 98.13 133.72 94.9 133.72 94.9 157.27 88.06 150.43 85.78 152.72 94.29 161.24 94.22 161.31"/></g><path class="cls-3" d="M854.39,152.79a1,1,0,0,1,0-1.47l2.59-2.59a1,1,0,0,1,1.46,0l4.2,4.19a1,1,0,0,0,1.46,0l11.51-11.54a1,1,0,0,1,1.47,0l2.57,2.56a1,1,0,0,1,0,1.46l-14,14a2.88,2.88,0,0,1-1.77.73h-1.21a2.87,2.87,0,0,1-1.77-.73Z"/><g class="cls-1"><path class="cls-2" d="M783.11,19.67a3.87,3.87,0,0,1-.71,0V43.71l-4.26-4-5.49,7.09-5.57-7.26-5.54,7.26L756,39.72l-4,3.93V10h20.74a5.42,5.42,0,0,1-.27-1.45,4.39,4.39,0,0,1,0-.55H750V48.39l5.83-5.68,5.76,7.39,5.53-7.25,5.56,7.24,5.73-7.41,6,5.63V19.45A5.71,5.71,0,0,1,783.11,19.67Z"/><rect class="cls-2" x="757.86" y="16.82" width="18" height="2"/><rect class="cls-2" x="757.86" y="24.44" width="18" height="2"/><rect class="cls-2" x="757.86" y="32.07" width="18" height="2"/><path class="cls-2" d="M781,0a10.76,10.76,0,0,0-10.5,11,10.51,10.51,0,1,0,21,0A10.76,10.76,0,0,0,781,0Zm5.56,8.85L781,14.64a1.11,1.11,0,0,1-.7.3h-.48a1.11,1.11,0,0,1-.7-.3l-2.6-2.73a.45.45,0,0,1,0-.61l1-1.07a.4.4,0,0,1,.58,0L779.82,12a.4.4,0,0,0,.58,0l4.55-4.77a.4.4,0,0,1,.58,0l1,1.06A.44.44,0,0,1,786.54,8.85Z"/></g><g class="cls-1"><path class="cls-2" d="M957.7,47.89l-5.76-7.39-5.83,5.68V5.74h34.43V46.11l-6-5.63-5.73,7.41-5.56-7.24Zm5.52-10.53,5.57,7.26,5.49-7.09,4.26,4V7.74H948.11v33.7l4-3.93,5.54,7.11Z"/><rect class="cls-2" x="954" y="14.61" width="18" height="2"/><rect class="cls-2" x="954" y="22.23" width="18" height="2"/><rect class="cls-2" x="954" y="29.86" width="18" height="2"/></g></svg>