<?xml version="1.0" encoding="utf-8"?>
<!-- Generator: Adobe Illustrator 21.0.0, SVG Export Plug-In . SVG Version: 6.00 Build 0)  -->
<svg version="1.1" id="Layer_1" xmlns="http://www.w3.org/2000/svg" xmlns:xlink="http://www.w3.org/1999/xlink" x="0px" y="0px"
	 viewBox="0 0 28 32" style="enable-background:new 0 0 28 32;" xml:space="preserve">
<style type="text/css">
	.st0{fill:#232323;}
</style>
<title>Page 1</title>
<desc>Created with Sketch.</desc>
<g id="Welcome">
	<g id="Desktop-Copy" transform="translate(-70.000000, -17.000000)">
		<g id="Page-1" transform="translate(70.000000, 17.000000)">
			<path id="Fill-1" class="st0" d="M16.3,3.2c0-1.3-1.1-2.3-2.3-2.3c-1.2,0-2.3,1.1-2.3,2.3c0,1.3,1.1,2.3,2.3,2.3
				C15.3,5.5,16.3,4.4,16.3,3.2L16.3,3.2z M14.4,31c6-0.1,10.6-5.4,10.5-10.8c-0.3,0.4-0.7,0.7-1,1c-0.3,0.3-0.6,0.2-0.8-0.1
				c-0.1-0.2-0.1-0.4,0.1-0.6c0.6-0.6,1.2-1.2,1.9-1.9c0.3-0.2,0.5-0.2,0.7,0c0.6,0.6,1.2,1.2,1.9,1.9c0.2,0.2,0.2,0.5,0,0.7
				c-0.2,0.2-0.5,0.2-0.7,0c-0.3-0.3-0.7-0.7-1.1-1.1c-0.2,4-1.8,7.2-4.9,9.5c-2.3,1.7-4.8,2.5-7.7,2.3c-2-0.1-4-0.7-5.7-1.7
				C6,29.2,4.6,27.7,3.6,26c-1-1.8-1.6-3.7-1.6-5.8c-0.4,0.4-0.7,0.7-1,1c-0.1,0.1-0.4,0.2-0.5,0.2c-0.1,0-0.3-0.1-0.4-0.3
				c-0.1-0.1,0-0.4,0.1-0.5c0.6-0.7,1.3-1.3,2-2c0.2-0.2,0.4-0.2,0.6,0c0.6,0.6,1.3,1.3,1.9,1.9c0.2,0.2,0.2,0.5,0,0.7
				c-0.2,0.2-0.5,0.2-0.7,0c-0.3-0.3-0.6-0.6-1-1c-0.4,1.4,0.9,5,2.5,6.8c2.1,2.5,4.8,3.8,8.1,4V10.4h-0.4c-1.3,0-2.6,0-3.9,0
				c-0.3,0-0.5-0.1-0.6-0.4C8.6,9.7,8.8,9.5,9.2,9.5c1.2,0,2.4,0,3.6,0h0.7v-3c-0.8-0.2-1.5-0.6-2.1-1.2c-0.8-1.1-0.9-2.6-0.1-3.8
				c0.8-1.2,2.3-1.7,3.6-1.3c1.3,0.4,2.3,1.7,2.3,3.1c0,1.5-1,2.8-2.5,3.2c-0.2,0.1-0.3,0.1-0.3,0.4c0,0.9,0,1.8,0,2.7
				c0.1,0,0.3,0,0.4,0c1.3,0,2.6,0,3.9,0c0.3,0,0.5,0.1,0.6,0.4c0.1,0.3-0.2,0.6-0.5,0.6c-1.1,0-2.2,0-3.3,0c-0.3,0-0.7,0-1,0V31z"
				/>
		</g>
	</g>
</g>
</svg>
